# xmcd
#
# Track frame offsets: 
#        182
#        15245
#        33475
#        50605
#        65257
#        86905
#        107935
#        122267
#        136867
#        157022
#        172817
#
# Disc length: 2372 seconds
#
# Revision: 10
# Processed by: cddbd v1.5.2PL0 Copyright (c) Steve Scherf et al.
# Submitted via: ExactAudioCopy v0.99pb5
#
DISCID=8509420b
DTITLE=Carlene Carter - Little acts of treason
DYEAR=1995
DGENRE=Country
TTITLE0=Love like this
TTITLE1=The lucky ones
TTITLE2=Little acts of treason
TTITLE3=He will be mine
TTITLE4=Come here you
TTITLE5=Change
TTITLE6=Hurricane
TTITLE7=Go wild
TTITLE8=You'll be the one
TTITLE9=All night long
TTITLE10=Come here you (Reprise)
EXTD=
EXTT0=
EXTT1=
EXTT2=
EXTT3=
EXTT4=
EXTT5=
EXTT6=
EXTT7=
EXTT8=
EXTT9=
EXTT10=
PLAYORDER=
